<mxfile host="app.diagrams.net" modified="2024-06-17T09:32:56.520Z" agent="Mozilla/5.0 (X11; Linux x86_64) AppleWebKit/537.36 (KHTML, like Gecko) Chrome/126.0.0.0 Safari/537.36" etag="6XTZKql_4FMOxz17O36p" version="24.5.4" type="github">
  <diagram id="f106602c-feb2-e66a-4537-3a34d633f6aa" name="Page-1">
    <mxGraphModel dx="1687" dy="1847" grid="1" gridSize="10" guides="1" tooltips="1" connect="1" arrows="1" fold="1" page="1" pageScale="1" pageWidth="1169" pageHeight="827" background="none" math="0" shadow="0">
      <root>
        <mxCell id="0" />
        <mxCell id="1" parent="0" />
        <mxCell id="aCLTZPaxBv7wHEszw06T-22" style="edgeStyle=orthogonalEdgeStyle;rounded=0;orthogonalLoop=1;jettySize=auto;html=1;entryX=0;entryY=0.5;entryDx=0;entryDy=0;" edge="1" parent="1" source="aCLTZPaxBv7wHEszw06T-3" target="aCLTZPaxBv7wHEszw06T-5">
          <mxGeometry relative="1" as="geometry" />
        </mxCell>
        <mxCell id="aCLTZPaxBv7wHEszw06T-3" value="" style="shape=mxgraph.gcp2.doubleRect;strokeColor=#dddddd;shadow=1;strokeWidth=1;rounded=1;absoluteArcSize=1;arcSize=2;" vertex="1" parent="1">
          <mxGeometry x="90" y="260" width="158" height="68" as="geometry" />
        </mxCell>
        <mxCell id="aCLTZPaxBv7wHEszw06T-4" value="PLX Spanner&lt;div&gt;&amp;nbsp; &amp;nbsp; &amp;nbsp; Table&amp;nbsp;&lt;/div&gt;" style="editableCssRules=.*;html=1;fontColor=#999999;shape=image;verticalLabelPosition=middle;verticalAlign=middle;labelPosition=right;align=left;spacingLeft=20;part=1;points=[];imageAspect=0;image=data:image/svg+xml,PHN2ZyB4bWxucz0iaHR0cDovL3d3dy53My5vcmcvMjAwMC9zdmciIHhtbG5zOnY9Imh0dHBzOi8vdmVjdGEuaW8vbmFubyIgd2lkdGg9IjIwIiBoZWlnaHQ9IjE4LjQ1OTk5OTA4NDQ3MjY1NiIgZmlsbC1ydWxlPSJldmVub2RkIiB2aWV3Qm94PSIwIDAgMjAgMTguNDU5OTk5MDg0NDcyNjU2Ij4mI3hhOwk8c3R5bGUgdHlwZT0idGV4dC9jc3MiPiYjeGE7CQkuc3Qwe2ZpbGw6IzQyODVmNDt9JiN4YTsJCS5zdDF7ZmlsbDojNjY5ZGY2O30mI3hhOwkJLnN0MntmaWxsOiNhZWNiZmE7fSYjeGE7CTwvc3R5bGU+JiN4YTsJPHBhdGggY2xhc3M9InN0MSIgZD0iTTguNjYgNS42M3Y0LjM2bC0zLjc3IDIuMTggMS4zNCAyLjMyTDEwIDEyLjMxbDMuNzcgMi4xOCAxLjM0LTIuMzItMy43Ny0yLjE4VjUuNjN6Ii8+JiN4YTsJPHBhdGggY2xhc3M9InN0MCIgZD0iTTEwIDUuNjN2NS4xMmwtNC40NCAyLjU4LjY3IDEuMTZMMTAgMTIuMzFsMy43NyAyLjE4IDEuMzQtMi4zMi0zLjc3LTIuMThWNS42M3oiLz4mI3hhOwk8cGF0aCBjbGFzcz0ic3QyIiBkPSJNNi42MiA0Ljk1TDEwIDYuNzhWMy42N2wtMS4zNS0uNjJWMEw2LjYyIDEuMjJ6Ii8+JiN4YTsJPHBhdGggY2xhc3M9InN0MSIgZD0iTTEwIDYuNzhsMy4zOC0xLjgzVjEuMjJMMTEuMzUgMHYzLjA1TDEwIDMuNjd6bTYuMTQgNy41M2wtLjA4IDEuMzkgMi43IDEuNTMtMi4xOCAxLjItMy4yNC0xLjg3LjExLTMuODMgMy4yNy0yTDIwIDEyLjYxdjIuNDlsLTIuNjktMS41NXptLTEyLjI4IDBsLTEuMTctLjc2TDAgMTUuMXYtMi40OWwzLjIzLTEuODcgMy4yNyAyIC4xMSAzLjgzLTMuMTkgMS44OS0yLjE4LTEuMjMgMi43LTEuNTZ6Ii8+JiN4YTsJPHBhdGggY2xhc3M9InN0MiIgZD0iTTE2LjcyIDEwLjc1bC0zLjI3IDIuMDEgMi42OSAxLjU1IDEuMTYtLjc2TDIwIDE1LjFsLS4wNS0yLjQ5ek0zLjg2IDE0LjMxbDIuNjktMS41NS0zLjI3LTIuMDEtMy4yMyAxLjg2TDAgMTUuMWwyLjctMS41NXoiLz4mI3hhOzwvc3ZnPg==;" vertex="1" parent="aCLTZPaxBv7wHEszw06T-3">
          <mxGeometry width="30" height="27" relative="1" as="geometry">
            <mxPoint x="15" y="16" as="offset" />
          </mxGeometry>
        </mxCell>
        <mxCell id="aCLTZPaxBv7wHEszw06T-23" style="edgeStyle=orthogonalEdgeStyle;rounded=0;orthogonalLoop=1;jettySize=auto;html=1;" edge="1" parent="1" source="aCLTZPaxBv7wHEszw06T-5" target="aCLTZPaxBv7wHEszw06T-9">
          <mxGeometry relative="1" as="geometry" />
        </mxCell>
        <mxCell id="aCLTZPaxBv7wHEszw06T-5" value="Data Processing" style="sketch=0;html=1;verticalAlign=top;labelPosition=center;verticalLabelPosition=bottom;align=center;spacingTop=-6;fontSize=11;fontStyle=1;fontColor=#999999;shape=image;aspect=fixed;imageAspect=0;image=data:image/svg+xml,PHN2ZyB4bWxucz0iaHR0cDovL3d3dy53My5vcmcvMjAwMC9zdmciIHhtbG5zOnY9Imh0dHBzOi8vdmVjdGEuaW8vbmFubyIgd2lkdGg9IjIwIiBoZWlnaHQ9IjIwIiB2aWV3Qm94PSIwIDAgMjAgMjAiPiYjeGE7CTxzdHlsZSB0eXBlPSJ0ZXh0L2NzcyI+JiN4YTsJLnN0MHtmaWxsOiM0Mjg1ZjQ7fSYjeGE7CTwvc3R5bGU+JiN4YTsJPHBhdGggY2xhc3M9InN0MCIgZD0iTTEzLjMzIDB2Mi4zOGgtMi4xNlYwSDguODN2Mi4zOEg2LjY3VjBINC4yOXYyLjM4YTIgMiAwIDAgMC0xLjkxIDEuOTFIMHYyLjM4aDIuMzh2Mi4xNEgwdjIuMzhoMi4zOHYyLjE0SDB2Mi4zOGgyLjM4YTIgMiAwIDAgMCAxLjkxIDEuOTFWMjBoMi4zOHYtMi4zOGgyLjE2VjIwaDIuMzR2LTIuMzhoMi4xNlYyMGgyLjM4di0yLjM4YTIgMiAwIDAgMCAxLjkxLTEuOTFIMjB2LTIuMzhoLTIuMzh2LTIuMTRIMjBWOC44MWgtMi4zOFY2LjY3SDIwVjQuMjloLTIuMzhhMiAyIDAgMCAwLTEuOTEtMS45MVYwem0xLjUzIDE1LjI0SDUuMTRhLjM4LjM4IDAgMCAxLS4zOC0uMzhWNS4xNGEuMzguMzggMCAwIDEgLjM4LS4zOGg5LjcyYS4zOC4zOCAwIDAgMSAuMzguMzh2OS43MmEuMzguMzggMCAwIDEtLjM4LjM4em0tMi4wNy02LjEybC0zLjUgNC44NnYtMy42M0g3LjIybDMuNjEtNC44MXYzLjU4eiIvPiYjeGE7PC9zdmc+;" vertex="1" parent="1">
          <mxGeometry x="352" y="160" width="42" height="42" as="geometry" />
        </mxCell>
        <mxCell id="aCLTZPaxBv7wHEszw06T-26" style="edgeStyle=orthogonalEdgeStyle;rounded=0;orthogonalLoop=1;jettySize=auto;html=1;" edge="1" parent="1" source="aCLTZPaxBv7wHEszw06T-7">
          <mxGeometry relative="1" as="geometry">
            <mxPoint x="519.9999999999998" y="330" as="targetPoint" />
          </mxGeometry>
        </mxCell>
        <mxCell id="aCLTZPaxBv7wHEszw06T-7" value="" style="strokeColor=#dddddd;shadow=1;strokeWidth=1;rounded=1;absoluteArcSize=1;arcSize=2;" vertex="1" parent="1">
          <mxGeometry x="309.5" y="390" width="129" height="60" as="geometry" />
        </mxCell>
        <mxCell id="aCLTZPaxBv7wHEszw06T-8" value="&lt;font color=&quot;#000000&quot;&gt;&amp;nbsp; &amp;nbsp; CNS&amp;nbsp;&lt;br&gt;&lt;/font&gt;&lt;span style=&quot;color: rgb(0, 0, 0); background-color: initial;&quot;&gt;Data Lake&amp;nbsp;&lt;/span&gt;" style="editableCssRules=.*;html=1;fontColor=#999999;shape=image;verticalLabelPosition=middle;verticalAlign=middle;labelPosition=right;align=left;spacingLeft=20;part=1;points=[];imageAspect=0;image=data:image/svg+xml,PHN2ZyB4bWxucz0iaHR0cDovL3d3dy53My5vcmcvMjAwMC9zdmciIHhtbG5zOnY9Imh0dHBzOi8vdmVjdGEuaW8vbmFubyIgd2lkdGg9IjIwIiBoZWlnaHQ9IjE2IiB2aWV3Qm94PSIwIDAgMjAgMTYiPiYjeGE7CTxzdHlsZSB0eXBlPSJ0ZXh0L2NzcyI+JiN4YTsJLnN0MHtmaWxsOiM0Mjg1ZjQ7fSYjeGE7CS5zdDF7ZmlsbDojNjY5ZGY2O30mI3hhOwkuc3Qye2ZpbGw6I2FlY2JmYTt9JiN4YTsJPC9zdHlsZT4mI3hhOwk8cGF0aCBjbGFzcz0ic3QwIiBkPSJNMTIgMTBIOEw2IDhoOHoiLz4mI3hhOwk8cGF0aCBjbGFzcz0ic3QyIiBkPSJNMTYgMkg0bDEtMmgxMHptMyAzSDFsMS0yaDE2eiIvPiYjeGE7CTxwYXRoIGNsYXNzPSJzdDEiIGQ9Ik0xNCA3bC0yIDNIOEw2IDdIMHY5aDIwVjd6Ii8+JiN4YTs8L3N2Zz4=;" vertex="1" parent="aCLTZPaxBv7wHEszw06T-7">
          <mxGeometry width="30" height="24" relative="1" as="geometry">
            <mxPoint x="15" y="18" as="offset" />
          </mxGeometry>
        </mxCell>
        <mxCell id="aCLTZPaxBv7wHEszw06T-24" style="edgeStyle=orthogonalEdgeStyle;rounded=0;orthogonalLoop=1;jettySize=auto;html=1;entryX=0.5;entryY=0;entryDx=0;entryDy=0;" edge="1" parent="1" source="aCLTZPaxBv7wHEszw06T-9" target="aCLTZPaxBv7wHEszw06T-7">
          <mxGeometry relative="1" as="geometry" />
        </mxCell>
        <mxCell id="aCLTZPaxBv7wHEszw06T-9" value="" style="sketch=0;pointerEvents=1;shadow=0;dashed=0;html=1;strokeColor=none;fillColor=#505050;labelPosition=center;verticalLabelPosition=bottom;verticalAlign=top;outlineConnect=0;align=center;shape=mxgraph.office.users.csv_file;" vertex="1" parent="1">
          <mxGeometry x="344.5" y="280" width="59" height="43" as="geometry" />
        </mxCell>
        <mxCell id="aCLTZPaxBv7wHEszw06T-27" style="edgeStyle=orthogonalEdgeStyle;rounded=0;orthogonalLoop=1;jettySize=auto;html=1;entryX=0;entryY=0.5;entryDx=0;entryDy=0;" edge="1" parent="1" source="aCLTZPaxBv7wHEszw06T-14" target="aCLTZPaxBv7wHEszw06T-19">
          <mxGeometry relative="1" as="geometry" />
        </mxCell>
        <mxCell id="aCLTZPaxBv7wHEszw06T-14" value="" style="strokeColor=#dddddd;shadow=1;strokeWidth=1;rounded=1;absoluteArcSize=1;arcSize=2;" vertex="1" parent="1">
          <mxGeometry x="461" y="268" width="158.75" height="60" as="geometry" />
        </mxCell>
        <mxCell id="aCLTZPaxBv7wHEszw06T-15" value="&lt;font color=&quot;#000000&quot;&gt;&amp;nbsp; &amp;nbsp; &amp;nbsp; &amp;nbsp;KETL&lt;br&gt;(Transform Data)&lt;/font&gt;&lt;br&gt;&amp;nbsp;" style="editableCssRules=.*;html=1;fontColor=#999999;shape=image;verticalLabelPosition=middle;verticalAlign=middle;labelPosition=right;align=left;spacingLeft=20;part=1;points=[];imageAspect=0;image=data:image/svg+xml,PHN2ZyB4bWxucz0iaHR0cDovL3d3dy53My5vcmcvMjAwMC9zdmciIHhtbG5zOnY9Imh0dHBzOi8vdmVjdGEuaW8vbmFubyIgd2lkdGg9IjE0LjUxOTk5OTUwNDA4OTM1NSIgaGVpZ2h0PSIyMCIgdmlld0JveD0iMCAwIDE0LjUxOTk5OTUwNDA4OTM1NSAyMCI+JiN4YTsJPHN0eWxlIHR5cGU9InRleHQvY3NzIj4mI3hhOwkuc3Qwe2ZpbGwtcnVsZTpldmVub2RkfSYjeGE7CS5zdDF7ZmlsbDojNjY5ZGY2O30mI3hhOwkuc3Qye2ZpbGw6I2FlY2JmYTt9JiN4YTsJLnN0M3tmaWxsOiM0Mjg1ZjQ7fSYjeGE7CTwvc3R5bGU+JiN4YTsJPGcgY2xhc3M9InN0MCI+JiN4YTsJCTxwYXRoIGNsYXNzPSJzdDEiIGQ9Ik03LjM3IDIuMDNsLTEuNzIuOTYgMS41MiAxLjUtLjAyIDEuNzMgMS4wMi4wMS4wMi0xLjczIDQuMjQgMi41Ni0uMDEgMS4wNyAxLjc3LjAzVjYuMTFMOS4wNSAzLjA0bC0uMjctLjk0eiIvPiYjeGE7CQk8cGF0aCBjbGFzcz0ic3QyIiBkPSJNNy4zNiAyLjAzbC0xLjQyLjM1LS4yOS42MUwuMzkgNS45Mi4zNiA3Ljk3IDIuMTQgOGwuMDItMS4wNyA0LjMxLTIuNDUtLjAyIDEuNzMuODYuMDEuMDYtNC4xOXoiLz4mI3hhOwkJPGcgY2xhc3M9InN0MSI+JiN4YTsJCQk8cGF0aCBkPSJNNy4zNiAyLjAzTDMuOTUgMCAyLjIxLjk1bDMuNDQgMi4wNCAxLjcyLS45NnptLjcxIDExLjc2bC0xLjcyLS4wMi0uMDIgMS43Mi44MiAyLjQ4IDEuNDItLjEyLjI5LS44NSA1LjI3LTIuOTMuMDMtMi4wOS0xLjc5LS4wMi0uMDIgMS4xLTQuMyAyLjQ1eiIvPiYjeGE7CQkJPHBhdGggZD0iTTcuMTUgMTcuOTdsLTMuNDYgMS45NGgtLjA1bC0xLjY2LS45OSAzLjQ5LTEuOTYgMS42OCAxLjAxeiIvPiYjeGE7CQk8L2c+JiN4YTsJCTxwYXRoIGNsYXNzPSJzdDMiIGQ9Ik0xMC44OC4wOWgtLjA1TDcuMzcgMi4wM2wxLjY4IDEuMDEgMy40OS0xLjk2ek0xMC42MiAyMGgtLjA1bC0zLjQyLTIuMDNoMCAwIDBsMS43Mi0uOTYgMy40NCAyLjA0eiIvPiYjeGE7CQk8cGF0aCBjbGFzcz0ic3QyIiBkPSJNLjMzIDEzLjg5di0yaDEuNzZsLS4wMSAxLjA0IDQuMjUgMi41Ni4wMi0xLjcyLjg2LjAxLS4wNiA0LjE4LTEuNjgtMXoiLz4mI3hhOwk8L2c+JiN4YTsJPGNpcmNsZSBjbGFzcz0ic3QyIiBjeD0iMTMuMzgiIGN5PSIxMC4wNCIgcj0iMS4xNCIvPiYjeGE7CTxjaXJjbGUgY2xhc3M9InN0MiIgY3g9IjEuMTQiIGN5PSI5Ljg4IiByPSIxLjE0Ii8+JiN4YTsJPGNpcmNsZSBjbGFzcz0ic3QyIiBjeD0iNy4zMiIgY3k9IjcuOTkiIHI9IjEuMTQiLz4mI3hhOwk8Y2lyY2xlIGNsYXNzPSJzdDIiIGN4PSI3LjIzIiBjeT0iMTIiIHI9IjEuMTQiLz4mI3hhOzwvc3ZnPg==;" vertex="1" parent="aCLTZPaxBv7wHEszw06T-14">
          <mxGeometry width="22" height="30" relative="1" as="geometry">
            <mxPoint x="19" y="15" as="offset" />
          </mxGeometry>
        </mxCell>
        <mxCell id="aCLTZPaxBv7wHEszw06T-33" style="edgeStyle=orthogonalEdgeStyle;rounded=0;orthogonalLoop=1;jettySize=auto;html=1;entryX=0.5;entryY=0;entryDx=0;entryDy=0;" edge="1" parent="1" source="aCLTZPaxBv7wHEszw06T-17" target="aCLTZPaxBv7wHEszw06T-32">
          <mxGeometry relative="1" as="geometry">
            <Array as="points">
              <mxPoint x="362" y="60" />
              <mxPoint x="793" y="60" />
            </Array>
          </mxGeometry>
        </mxCell>
        <mxCell id="aCLTZPaxBv7wHEszw06T-17" value="Streaming" style="rounded=1;absoluteArcSize=1;arcSize=2;html=1;strokeColor=#4284F3;gradientColor=none;shadow=0;dashed=1;fontSize=12;fontColor=#9E9E9E;align=left;verticalAlign=top;spacing=10;spacingTop=-4;fillColor=none;dashPattern=1 2;strokeWidth=2;" vertex="1" parent="1">
          <mxGeometry x="80" y="111" width="564.75" height="369" as="geometry" />
        </mxCell>
        <mxCell id="aCLTZPaxBv7wHEszw06T-40" style="edgeStyle=orthogonalEdgeStyle;rounded=0;orthogonalLoop=1;jettySize=auto;html=1;entryX=0;entryY=0.5;entryDx=0;entryDy=0;" edge="1" parent="1" source="aCLTZPaxBv7wHEszw06T-18" target="aCLTZPaxBv7wHEszw06T-29">
          <mxGeometry relative="1" as="geometry" />
        </mxCell>
        <mxCell id="aCLTZPaxBv7wHEszw06T-18" value="Goops&amp;nbsp;&lt;div&gt;Datastream&lt;/div&gt;" style="sketch=0;html=1;verticalAlign=top;labelPosition=center;verticalLabelPosition=bottom;align=center;spacingTop=-6;fontSize=11;fontStyle=1;fontColor=#999999;shape=image;aspect=fixed;imageAspect=0;image=data:image/svg+xml,PHN2ZyB4bWxucz0iaHR0cDovL3d3dy53My5vcmcvMjAwMC9zdmciIGlkPSJzdmczMjM0NyIgdmVyc2lvbj0iMS4xIiB2aWV3Qm94PSIwIDAgMjY1LjgzODA0IDI0NS4zMDU1NCIgaGVpZ2h0PSIyNDUuMzA1NTRtbSIgd2lkdGg9IjI2NS44MzgwNG1tIj4mI3hhOyAgJiN4YTsgIDxkZWZzIGlkPSJkZWZzMzIzNDQiLz4mI3hhOyAgPGcgdHJhbnNmb3JtPSJ0cmFuc2xhdGUoMjYuMDAxOTQ1LC0yNC45MTAzOTEpIiBpZD0ibGF5ZXIxIj4mI3hhOyAgICA8cGF0aCBkPSJtIDQyLjE3OTY4NywzMy45Nzg1MTYgYyAtMC42NDE1MDMsMC4wMTg2IC0xLjI4NjQ4NywwLjAzODggLTEuOTM1MzIzLDAuMDU5OTIgMi4wMTg1ODUsOC44ODg3MiAyLjQ1ODk0MSwxNi40NTc5NjYgLTAuMDk3MzMsMjYuMDYyNzY0IDEyLjI5MTAzNywtMC4zNDA5NzUgMTkuMjU0OTQyLC0wLjQ0NTY3MyAyNi44NzQ0NDksMi45Mzc4NjYgbCAwLjAxOTUzLDAuMDA3OCAwLjAxOTUzLDAuMDA5OCBjIDYuMzEwNzgzLDIuNzc3OTA4IDE0LjMyNzI4NSwxMi42MDI0NyAyMS44NjcxODcsMjYuMTcxODc1IDcuNTM5OTAzLDEzLjU2OTM5OSAxNC43MTAwOCwyOS44NzM2NzkgMjQuMDc4MTMsNDMuNjQwNjE5IGwgMC4yOTEwMiwwLjQyNzczIDAuMzIyMjYsMC40MDIzNSBjIDkuODM1NCwxMi4yMzgxNSAyMy40ODA0MiwyMi43MDczNiA0OS4wODIzOCwyNi45Njg4MSAtMi4wODM5NiwtOS41MDI2NSAtMi4yMTQ2NywtMTYuMjA1NzYgLTAuMDQwOSwtMjYuMjk3OTIgLTE3LjE1OTg5LC0zLjAxOTUgLTIwLjk5MjI3LC03LjMxNTc2IC0yOC40MDg2NCwtMTYuNTMyMjQgQyAxMjcuMDIwNSwxMDcuMDkyODMgMTE5Ljg5NjEzLDkxLjQyODc1MiAxMTEuNjU2MjUsNzYuNTk5NjA5IDEwMy4zMjUyNyw2MS42MDY1MTYgOTMuOTU5MzUxLDQ2LjQ5OTg0MSA3Ny41NTI3MzQsMzkuMjY5NTMxIDY1LjMzNTEzMSwzMy44NDk2MzIgNTQuMzg3OTc1LDMzLjYyNDUwMyA0Mi4xNzk2ODcsMzMuOTc4NTE2IFogTSAyMzkuODM2MSwxNDcuMjkzNSBhIDI3LjU3ODE5NywyNy41NzgxOTcgMCAwIDEgLTI3LjU3ODIsMjcuNTc4MiAyNy41NzgxOTcsMjcuNTc4MTk3IDAgMCAxIC0yNy41NzgxOSwtMjcuNTc4MiAyNy41NzgxOTcsMjcuNTc4MTk3IDAgMCAxIDI3LjU3ODE5LC0yNy41NzgxOSAyNy41NzgxOTcsMjcuNTc4MTk3IDAgMCAxIDI3LjU3ODIsMjcuNTc4MTkgeiBNIDE4LjA0NjY0MSwyNDguMzU3ODggQSAyMS44NTgwNjEsMjEuODU4MDYxIDAgMCAxIC0zLjgxMTQxOTUsMjcwLjIxNTk0IDIxLjg1ODA2MSwyMS44NTgwNjEgMCAwIDEgLTI1LjY2OTQ4LDI0OC4zNTc4OCAyMS44NTgwNjEsMjEuODU4MDYxIDAgMCAxIC0zLjgxMTQxOTUsMjI2LjQ5OTgyIDIxLjg1ODA2MSwyMS44NTgwNjEgMCAwIDEgMTguMDQ2NjQxLDI0OC4zNTc4OCBaIE0gMTcuNzc4MjYzLDQ2Ljc2ODQ1MiBBIDIxLjg1ODA2MSwyMS44NTgwNjEgMCAwIDEgLTQuMDc5Nzk3Nyw2OC42MjY1MTMgMjEuODU4MDYxLDIxLjg1ODA2MSAwIDAgMSAtMjUuOTM3ODU5LDQ2Ljc2ODQ1MiAyMS44NTgwNjEsMjEuODU4MDYxIDAgMCAxIC00LjA3OTc5NzcsMjQuOTEwMzkxIDIxLjg1ODA2MSwyMS44NTgwNjEgMCAwIDEgMTcuNzc4MjYzLDQ2Ljc2ODQ1MiBaIE0gMTcuNzE0MTc2LDE0Ny42NTM3OSBBIDIxLjg1ODA2MSwyMS44NTgwNjEgMCAwIDEgLTQuMTQzODg0NywxNjkuNTExODUgMjEuODU4MDYxLDIxLjg1ODA2MSAwIDAgMSAtMjYuMDAxOTQ1LDE0Ny42NTM3OSAyMS44NTgwNjEsMjEuODU4MDYxIDAgMCAxIC00LjE0Mzg4NDcsMTI1Ljc5NTczIDIxLjg1ODA2MSwyMS44NTgwNjEgMCAwIDEgMTcuNzE0MTc2LDE0Ny42NTM3OSBaIiBzdHlsZT0iY29sb3I6IzAwMDAwMDtvcGFjaXR5OjE7ZmlsbDojMzM1YmJiO2ZpbGwtb3BhY2l0eToxOy1pbmtzY2FwZS1zdHJva2U6bm9uZSIgaWQ9InBhdGgzMjg5NyIvPiYjeGE7ICAgIDxwYXRoIGQ9Im0gMTEyLjk3NzA4LDE2NS4zNDI3IGMgLTUuMDc0Niw3LjY0NjM0IC05LjMyODY3LDE0LjY3MzE5IC0xMi41MTQxOSwyMC45MTkwMiBsIC0wLjEyNSwwLjI0NjA5IC0wLjExNTIzLDAuMjUxOTYgYyAtOS4yMTU2NzYsMjAuMTM4MDEgLTE5LjUyMjQ5MSwzNi41ODk1NiAtMjkuODI4MTI5LDQzLjMwMDc4IC0xMy4xNjMxNTYsNi44NjM1MyAtMTkuODk5MzY4LDUuNTEzMDEgLTMwLjM2NDgxNSw0Ljk2MTA2IDMuMTk2MDQ0LDExLjgwNjMzIDIuNDQ0NTA2LDE5LjExMDMxIDAuMTQyNDQ4LDI2LjA1MzIxIDkuNTc3ODUsMC41MzIzNiAyNC45Mjg4MzksMS4yNzQ0MiA0Mi45NTA4ODMsLTguMzA3MjQgbCAwLjQyNzczNCwtMC4yMjY1NiAwLjQxMDE1NiwtMC4yNTk3NyBDIDEwMi44MjIzLDI0MC4zNjc4IDExMy43ODE1MiwyMTkuNTM4OTEgMTIzLjYyNSwxOTguMDc2MTcgYyAyLjYwNjk3LC01LjExMTQ2IDYuNjc0NTEsLTExLjg1MTUgMTEuNzEsLTE5LjM5NDg0IC05LjA3NDY4LC0zLjA3Nzk1IC0xNi45NDA4MSwtOC42MDk4NiAtMjIuMzU3OTIsLTEzLjMzODYzIHogbSAtNzIuODE4NSwtNC42MTUzOSA0Ni41MTQ0NzMsMC4wMTgxIDguOTkxMTU4LC0xMy4yODE0MiAtOC40MTMyODIsLTEyLjcxODM2IC00Ny4wOTI0MDYsLTAuMDE4MyBjIDIuODEzNDc4LDcuMzYzOTggMi4yMjQ4MjIsMTkuNjM5MTEgNS43ZS01LDI2IHoiIHN0eWxlPSJjb2xvcjojMDAwMDAwO29wYWNpdHk6MTtmaWxsOiM3NjllZjU7ZmlsbC1vcGFjaXR5OjE7LWlua3NjYXBlLXN0cm9rZTpub25lIiBpZD0icGF0aDMyOTAxIi8+JiN4YTsgIDwvZz4mI3hhOzwvc3ZnPg==;" vertex="1" parent="1">
          <mxGeometry x="1010" y="278.5" width="42" height="39" as="geometry" />
        </mxCell>
        <mxCell id="aCLTZPaxBv7wHEszw06T-28" style="edgeStyle=orthogonalEdgeStyle;rounded=0;orthogonalLoop=1;jettySize=auto;html=1;entryX=0;entryY=0.5;entryDx=0;entryDy=0;" edge="1" parent="1" source="aCLTZPaxBv7wHEszw06T-19" target="aCLTZPaxBv7wHEszw06T-18">
          <mxGeometry relative="1" as="geometry" />
        </mxCell>
        <mxCell id="aCLTZPaxBv7wHEszw06T-31" style="edgeStyle=orthogonalEdgeStyle;rounded=0;orthogonalLoop=1;jettySize=auto;html=1;entryX=0.5;entryY=0;entryDx=0;entryDy=0;" edge="1" parent="1" source="aCLTZPaxBv7wHEszw06T-19" target="aCLTZPaxBv7wHEszw06T-30">
          <mxGeometry relative="1" as="geometry" />
        </mxCell>
        <mxCell id="aCLTZPaxBv7wHEszw06T-19" value="" style="strokeColor=#dddddd;shadow=1;strokeWidth=1;rounded=1;absoluteArcSize=1;arcSize=2;" vertex="1" parent="1">
          <mxGeometry x="720" y="268" width="192.25" height="60" as="geometry" />
        </mxCell>
        <mxCell id="aCLTZPaxBv7wHEszw06T-20" value="&lt;font color=&quot;#000000&quot;&gt;Processed Events&lt;br&gt;(Events Time Series)&lt;/font&gt;" style="editableCssRules=.*;html=1;fontColor=#999999;shape=image;verticalLabelPosition=middle;verticalAlign=middle;labelPosition=right;align=left;spacingLeft=20;part=1;points=[];imageAspect=0;image=data:image/svg+xml,PHN2ZyB4bWxucz0iaHR0cDovL3d3dy53My5vcmcvMjAwMC9zdmciIHhtbG5zOnY9Imh0dHBzOi8vdmVjdGEuaW8vbmFubyIgd2lkdGg9IjE3Ljk1Njk3Nzg0NDIzODI4IiBoZWlnaHQ9IjIwLjAwOTI1NjM2MjkxNTA0IiB2aWV3Qm94PSItMC4wMDA0MjE5NjUxMTY0MDIxMzQzIDAuMDAwMDc0Njk5NTIxMDY0NzU4MyAxNy45NTY5Nzc4NDQyMzgyOCAyMC4wMDkyNTYzNjI5MTUwNCI+JiN4YTsJPHN0eWxlPiYjeGE7CQkuc3Qwe2ZpbGw6IzY2OWRmNjt9JiN4YTsJCS5zdDF7ZmlsbDojYWVjYmZhO30mI3hhOwkJLnN0MntmaWxsOiM0Mjg1ZjQ7fSYjeGE7CTwvc3R5bGU+JiN4YTsJPGcgZmlsbC1ydWxlPSJldmVub2RkIj4mI3hhOwkJPHBhdGggZD0iTTEzLjE5NiA0LjQ0N2wtNC4yMi0yLjUxYTIuODYgMi44NiAwIDAgMS0xLjI1LTEuNzFjMCAwIC4xNi0uMzIuMzgtLjJsNS4yNSAzLjFjLjYzLjM3LjI0IDIgLjI0IDJhLjc3Ljc3IDAgMCAwLS40LS42OHoiIGNsYXNzPSJzdDAiLz4mI3hhOwkJPHBhdGggZD0iTTE0LjQ2NiAxMC42ODdhLjM1LjM1IDAgMCAxLS4xNi4zM2wtMSAuNjh2LTcuOTVjMC0uMjcuMTctLjU2LS4wNi0uN2wuOTIuNjhhLjczLjczIDAgMCAxIC4zNS42NXoiIGNsYXNzPSJzdDEiLz4mI3hhOwkJPHBhdGggZD0iTTguOTc2IDExLjU5N2EuMzYuMzYgMCAwIDEtLjItLjA2bC0zLjQ2LTIuMDZ2LjlsMy42NiAyLjE4LjI5LS41N3MtLjIyLS4zOS0uMjktLjM5em0uMiAxLjhhLjM2LjM2IDAgMCAxLS40IDBsLTMuNDYtMi4wNnYuNjZhLjQyLjQyIDAgMCAwIC4xOS4zNWwzLjI4IDJhLjM3LjM3IDAgMCAwIC4zOCAwIDIgMiAwIDAgMCAuMi0uNTJsLS4xOS0uMzl6IiBjbGFzcz0ic3QwIi8+JiN4YTsJCTxwYXRoIGQ9Ik04Ljk3NiAxMC43MjdsMy42Ni0yLjE4di0uNDNhLjM5LjM5IDAgMCAwLS4xOS0uMzRsLTMuMjgtMmEuMzcuMzcgMCAwIDAtLjM4IDBsLTMuMjggMmEuNDEuNDEgMCAwIDAtLjE5LjM0di40M3oiIGNsYXNzPSJzdDEiLz4mI3hhOwkJPHBhdGggZD0iTTguOTc2IDkuODI3bC0zLjQ3LTIuMDVhLjQxLjQxIDAgMCAwLS4xOS4zNHYuNDNsMy42NiAyLjE4LjI4LS41NnoiIGNsYXNzPSJzdDAiLz4mI3hhOwkJPGcgY2xhc3M9InN0MiI+JiN4YTsJCQk8cGF0aCBkPSJNOC45NzYgMTEuNTk3djFsMy42Ni0yLjE4di0uOWwtMy40NiAyLjAyYS42NS42NSAwIDAgMS0uMi4wNnptLjIgMS44YS4zNi4zNiAwIDAgMS0uMi4wNnYuOWEuNS41IDAgMCAwIC4yMS0uMDVsMy4yOC0yYS4zOS4zOSAwIDAgMCAuMTktLjM1di0uNjZ6Ii8+JiN4YTsJCQk8cGF0aCBkPSJNMTIuNDQ2IDcuNzc3bC0zLjQ3IDIuMDV2LjlsMy42Ni0yLjE4di0uNDNhLjM5LjM5IDAgMCAwLS4xOS0uMzR6Ii8+JiN4YTsJCTwvZz4mI3hhOwkJPHBhdGggZD0iTTQuNzU2IDE1LjUyN2w0LjE1IDIuNDdhMi43MiAyLjcyIDAgMCAxIDEuMjggMS44LjE4LjE4IDAgMCAxLS4yOC4xOGwtNS40NS0zLjIzYy0uNTMtLjMyLS4wNy0xLjg4LS4wNy0xLjg4YS43Ny43NyAwIDAgMCAuMzcuNjZ6IiBjbGFzcz0ic3QwIi8+JiN4YTsJCTxwYXRoIGQ9Ik0zLjQ4NiAxNS43Mjd2LTYuNTZhLjQxLjQxIDAgMCAxIC4xOS0uMzNsMS0uNTl2Ny45MWMwIC4yNyAwIC42OS4yMS44M2wtMS4wNi0uNjZhLjc1Ljc1IDAgMCAxLS4zNC0uNnoiIGNsYXNzPSJzdDEiLz4mI3hhOwkJPHBhdGggZD0iTTcuMTM2IDMuNDU3YS43NS43NSAwIDAgMC0uNzQgMGwtNC4yIDIuNTRhMi42MyAyLjYzIDAgMCAxLTIuMDguMjYuMjMuMjMgMCAwIDEgMC0uNGMuMTgtLjA5IDYuMzItMy43NCA2LjMyLTMuNzQuMjMtLjE0Ljc0IDEuMzkuNzQgMS4zOXoiIGNsYXNzPSJzdDAiLz4mI3hhOwkJPHBhdGggZD0iTTcuMTI2IDIuMDc3bDUuMzIgMy4xNWEuMzcuMzcgMCAwIDEgLjIuMzF2MS4xOGwtNi42Ny0zLjk2YS43NS43NSAwIDAgMC0uNzQgMGwxLjE4LS42OWEuNzEuNzEgMCAwIDEgLjczIDB6IiBjbGFzcz0ic3QxIi8+JiN4YTsJCTxwYXRoIGQ9Ik0xMC43OTYgMTYuNDg3YS43My43MyAwIDAgMCAuNzQgMGw0LjItMi40OWEyLjYzIDIuNjMgMCAwIDEgMi4xLS4yNS4yMS4yMSAwIDAgMSAwIC4zOGwtNi4zMyAzLjc1Yy0uMjIuMTQtLjc0LTEuNC0uNzQtMS40eiIgY2xhc3M9InN0MCIvPiYjeGE7CQk8cGF0aCBkPSJNNS40ODYgMTQuNzQ3YS41Ni41NiAwIDAgMS0uMTctLjMzdi0xLjE2bDYuNjYgMy45M2EuNjkuNjkgMCAwIDAgLjczIDBsLTEuMTguN2EuNy43IDAgMCAxLS43NCAweiIgY2xhc3M9InN0MSIvPiYjeGE7CQk8cGF0aCBkPSJNMy4yMzYgNy44MDdhLjc2Ljc2IDAgMCAwLS4zNy42NXY1YTIuNzUgMi43NSAwIDAgMS0uODcgMiAuMTguMTggMCAwIDEtLjMtLjEzdi03LjU2YzAtLjI4IDEuNTQgMCAxLjU0IDB6IiBjbGFzcz0ic3QwIi8+JiN4YTsJCTxwYXRoIGQ9Ik02Ljc0NiA0LjUxN2EuMzQuMzQgMCAwIDEgLjM2IDBsMSAuNTktNi4wOCAzLjU2YS43Ny43NyAwIDAgMC0uMzcuNjZ2LTEuMzlhLjcyLjcyIDAgMCAxIC4zOC0uNjR6IiBjbGFzcz0ic3QxIi8+JiN4YTsJCTxwYXRoIGQ9Ik0xNS4xNDYgMTEuNDM3di01YTIuODEgMi44MSAwIDAgMSAuODQtMmMwIDAgLjMzLS4xMS4zMS4yMXMwIDcuMzcgMCA3LjM3Yy0uMzEuMzctMS42MSAwLTEuNjEgMGEuODEuODEgMCAwIDAgLjQ2LS41OHoiIGNsYXNzPSJzdDAiLz4mI3hhOwkJPHBhdGggZD0iTTE1Ljk3NiAxMi42MDdsLTQuNzQgMi44NWEuMzUuMzUgMCAwIDEtLjM3IDBsLTEtLjU3IDYuMTEtMy42N2EuNzcuNzcgMCAwIDAgLjM3LS42NnYxLjQ0Yy0uMDIuMjMtLjM3LjYxLS4zNy42MXoiIGNsYXNzPSJzdDEiLz4mI3hhOwk8L2c+JiN4YTs8L3N2Zz4=;" vertex="1" parent="aCLTZPaxBv7wHEszw06T-19">
          <mxGeometry width="27" height="30" relative="1" as="geometry">
            <mxPoint x="16" y="15" as="offset" />
          </mxGeometry>
        </mxCell>
        <mxCell id="aCLTZPaxBv7wHEszw06T-29" value="Data Load&amp;nbsp;" style="rounded=1;absoluteArcSize=1;arcSize=2;html=1;strokeColor=#4284F3;gradientColor=none;shadow=0;dashed=1;fontSize=12;fontColor=#9E9E9E;align=left;verticalAlign=top;spacing=10;spacingTop=-4;fillColor=none;dashPattern=1 2;strokeWidth=2;" vertex="1" parent="1">
          <mxGeometry x="1093" y="123" width="90" height="350" as="geometry" />
        </mxCell>
        <mxCell id="aCLTZPaxBv7wHEszw06T-30" value="Cloud&#xa;Logging" style="sketch=0;html=1;verticalAlign=top;labelPosition=center;verticalLabelPosition=bottom;align=center;spacingTop=-6;fontSize=11;fontStyle=1;fontColor=#999999;shape=image;aspect=fixed;imageAspect=0;image=data:image/svg+xml,PHN2ZyB4bWxucz0iaHR0cDovL3d3dy53My5vcmcvMjAwMC9zdmciIHhtbG5zOnY9Imh0dHBzOi8vdmVjdGEuaW8vbmFubyIgd2lkdGg9IjIwIiBoZWlnaHQ9IjE5IiB2aWV3Qm94PSIwIDAgMjAgMTkiPiYjeGE7CTxzdHlsZSB0eXBlPSJ0ZXh0L2NzcyI+JiN4YTsJLnN0MHtmaWxsOiM0Mjg1ZjQ7fSYjeGE7CS5zdDF7ZmlsbDojNjY5ZGY2O30mI3hhOwkuc3Qye2ZpbGw6I2FlY2JmYTt9JiN4YTsJPC9zdHlsZT4mI3hhOwk8ZyBjbGFzcz0ic3QwIj4mI3hhOwkJPHBhdGggZD0iTTQgOWg0djJINHptLTIgN2g2djJIMnoiLz4mI3hhOwkJPHBhdGggZD0iTTQgNEgydjEyaDJ6Ii8+JiN4YTsJPC9nPiYjeGE7CTxwYXRoIGNsYXNzPSJzdDEiIGQ9Ik0yMCAxSDd2NGgxM3ptMCA3SDd2NGgxM3ptMCA3SDd2NGgxM3oiLz4mI3hhOwk8cGF0aCBjbGFzcz0ic3QyIiBkPSJNNiAwSDB2Nmg2eiIvPiYjeGE7PC9zdmc+;" vertex="1" parent="1">
          <mxGeometry x="795" y="394" width="42" height="40" as="geometry" />
        </mxCell>
        <mxCell id="aCLTZPaxBv7wHEszw06T-32" value="Cloud&#xa;Monitoring" style="sketch=0;html=1;verticalAlign=top;labelPosition=center;verticalLabelPosition=bottom;align=center;spacingTop=-6;fontSize=11;fontStyle=1;fontColor=#999999;shape=image;aspect=fixed;imageAspect=0;image=data:image/svg+xml,PHN2ZyB4bWxucz0iaHR0cDovL3d3dy53My5vcmcvMjAwMC9zdmciIHhtbG5zOnY9Imh0dHBzOi8vdmVjdGEuaW8vbmFubyIgd2lkdGg9IjIwIiBoZWlnaHQ9IjEzLjUyOTk5OTczMjk3MTE5MSIgdmlld0JveD0iLTIuOTMyMDk3ODk3ODEyMDE0ZS05IC01LjI1ODAxNTA0MTgzNzk1NmUtMTUgMjAgMTMuNTI5OTk5NzMyOTcxMTkxIj4mI3hhOwk8c3R5bGUgdHlwZT0idGV4dC9jc3MiPiYjeGE7CS5zdDB7ZmlsbDojNDI4NWY0O30mI3hhOwkuc3Qxe2ZpbGw6IzY2OWRmNjt9JiN4YTsJPC9zdHlsZT4mI3hhOwk8cGF0aCBjbGFzcz0ic3QxIiBkPSJNOC44MyAxMC41OGgyLjMzdjIuNjRIOC44M3oiLz4mI3hhOwk8cGF0aCBjbGFzcz0ic3QwIiBkPSJNMTYuNDggOC42MWEuNTYuNTYgMCAwIDEtLjQtLjE3TDEyIDQuMjEgOS4yNiA3LjFhLjU3LjU3IDAgMCAxLS43Ni4wNUw2LjQyIDUuNDdsLTIuMiAyLjkyYS41Ni41NiAwIDAgMS0uNDUuMjJIMHYxLjcxYS43NS43NSAwIDAgMCAuNzQuNzVoMTguNTJhLjc1Ljc1IDAgMCAwIC43NC0uNzVWOC42MXoiLz4mI3hhOwk8cGF0aCBjbGFzcz0ic3QxIiBkPSJNMy41IDcuNWwyLjM4LTMuMTZhLjU1LjU1IDAgMCAxIC4zNy0uMjIuNjMuNjMgMCAwIDEgLjQyLjEybDIuMTIgMS43MiAyLjgtMi45NGEuNTQuNTQgMCAwIDEgLjQtLjE3aDBhLjU0LjU0IDAgMCAxIC40LjE3bDQuMzMgNC40OEgyMFYuNzRhLjc0Ljc0IDAgMCAwLS43NC0uNzRILjc0QS43NC43NCAwIDAgMCAwIC43NHY2LjgxeiIvPiYjeGE7CTxyZWN0IGNsYXNzPSJzdDAiIHg9IjYuNjciIHk9IjEyLjkyIiB3aWR0aD0iNi42NyIgaGVpZ2h0PSIuNjEiIHJ4PSIuMyIvPiYjeGE7PC9zdmc+;" vertex="1" parent="1">
          <mxGeometry x="764" y="120" width="57.93" height="40" as="geometry" />
        </mxCell>
        <mxCell id="aCLTZPaxBv7wHEszw06T-34" value="" style="verticalLabelPosition=bottom;aspect=fixed;html=1;shape=mxgraph.salesforce.data;" vertex="1" parent="1">
          <mxGeometry x="1107.8" y="163" width="51.4" height="40" as="geometry" />
        </mxCell>
        <mxCell id="aCLTZPaxBv7wHEszw06T-35" value="" style="verticalLabelPosition=bottom;aspect=fixed;html=1;shape=mxgraph.salesforce.data;" vertex="1" parent="1">
          <mxGeometry x="1108.8" y="215" width="51.4" height="40" as="geometry" />
        </mxCell>
        <mxCell id="aCLTZPaxBv7wHEszw06T-36" value="" style="verticalLabelPosition=bottom;aspect=fixed;html=1;shape=mxgraph.salesforce.data;" vertex="1" parent="1">
          <mxGeometry x="1108.8" y="266" width="51.4" height="40" as="geometry" />
        </mxCell>
        <mxCell id="aCLTZPaxBv7wHEszw06T-37" value="" style="verticalLabelPosition=bottom;aspect=fixed;html=1;shape=mxgraph.salesforce.data;" vertex="1" parent="1">
          <mxGeometry x="1108.8" y="320" width="51.4" height="40" as="geometry" />
        </mxCell>
        <mxCell id="aCLTZPaxBv7wHEszw06T-38" value="" style="verticalLabelPosition=bottom;aspect=fixed;html=1;shape=mxgraph.salesforce.data;" vertex="1" parent="1">
          <mxGeometry x="1108.8" y="370" width="51.4" height="40" as="geometry" />
        </mxCell>
        <mxCell id="aCLTZPaxBv7wHEszw06T-39" value="" style="verticalLabelPosition=bottom;aspect=fixed;html=1;shape=mxgraph.salesforce.data;" vertex="1" parent="1">
          <mxGeometry x="1108.8" y="422" width="51.4" height="40" as="geometry" />
        </mxCell>
        <UserObject label="&amp;nbsp; &amp;nbsp; &amp;nbsp; &amp;nbsp; &amp;nbsp; &amp;nbsp; &amp;nbsp; Google Knowledge Panel Serving&amp;nbsp;" id="aCLTZPaxBv7wHEszw06T-41">
          <mxCell style="rounded=1;absoluteArcSize=1;arcSize=2;html=1;strokeColor=#4284F3;gradientColor=none;shadow=0;dashed=1;fontSize=12;fontColor=#9E9E9E;align=left;verticalAlign=top;spacing=10;spacingTop=-4;fillColor=none;dashPattern=1 2;strokeWidth=2;" vertex="1" parent="1">
            <mxGeometry x="1259" y="-20" width="310" height="642" as="geometry" />
          </mxCell>
        </UserObject>
        <UserObject label="&lt;b style=&quot;font-weight:normal;&quot; id=&quot;docs-internal-guid-6d30fa6f-7fff-01f1-55e9-577f873bbfd6&quot;&gt;&lt;img width=&quot;238px;&quot; height=&quot;142px;&quot; src=&quot;https://lh7-us.googleusercontent.com/slidesz/AGV_vUfKlsykAlufe9gKNEAYJw-wZRZx6h8h_yUnr_Gx7zJ2ph2B0WaOhWQQoF9UColHr1ljZIQRd5EYJm9QPYJHFCUc9OEY3SaBEtFasatcD46pucEPOR5HrCSUCgVH--M20JuehtMuxQSfIKD3sXm12Xay0WWOtHi9Ag=s2048?key=coPCTO-R2lsjF8-3ZztxCA&quot;&gt;&lt;/b&gt;" link="&lt;b style=&quot;font-weight:normal;&quot; id=&quot;docs-internal-guid-6d30fa6f-7fff-01f1-55e9-577f873bbfd6&quot;&gt;&lt;img width=&quot;238px;&quot; height=&quot;142px;&quot; src=&quot;https://lh7-us.googleusercontent.com/slidesz/AGV_vUfKlsykAlufe9gKNEAYJw-wZRZx6h8h_yUnr_Gx7zJ2ph2B0WaOhWQQoF9UColHr1ljZIQRd5EYJm9QPYJHFCUc9OEY3SaBEtFasatcD46pucEPOR5HrCSUCgVH--M20JuehtMuxQSfIKD3sXm12Xay0WWOtHi9Ag=s2048?key=coPCTO-R2lsjF8-3ZztxCA&quot;&gt;&lt;/b&gt;" id="aCLTZPaxBv7wHEszw06T-43">
          <mxCell style="text;whiteSpace=wrap;html=1;" vertex="1" parent="1">
            <mxGeometry x="1290" y="147.5" width="270" height="170" as="geometry" />
          </mxCell>
        </UserObject>
        <UserObject label="&lt;b style=&quot;font-weight:normal;&quot; id=&quot;docs-internal-guid-5a432839-7fff-6410-1370-98b3a686013a&quot;&gt;&lt;img width=&quot;238px;&quot; height=&quot;103px;&quot; src=&quot;https://lh7-us.googleusercontent.com/slidesz/AGV_vUevablEtihwP5b6qL8gz0OBNh8PtadVOap0w2UT37NXV2LQd9Gbx2-6XLthpJOJqX9y-Ti5FNGafCRZOqOXK_KIIRa12dLJWbz2mRQ-mJIUKpBGLgYGs87oUrDcX1AHOItDk88P3KZWHc-Ij-2juYWGUNaxezCY0A=s2048?key=coPCTO-R2lsjF8-3ZztxCA&quot;&gt;&lt;/b&gt;" link="&lt;b style=&quot;font-weight:normal;&quot; id=&quot;docs-internal-guid-5a432839-7fff-6410-1370-98b3a686013a&quot;&gt;&lt;img width=&quot;238px;&quot; height=&quot;103px;&quot; src=&quot;https://lh7-us.googleusercontent.com/slidesz/AGV_vUevablEtihwP5b6qL8gz0OBNh8PtadVOap0w2UT37NXV2LQd9Gbx2-6XLthpJOJqX9y-Ti5FNGafCRZOqOXK_KIIRa12dLJWbz2mRQ-mJIUKpBGLgYGs87oUrDcX1AHOItDk88P3KZWHc-Ij-2juYWGUNaxezCY0A=s2048?key=coPCTO-R2lsjF8-3ZztxCA&quot;&gt;&lt;/b&gt;" id="aCLTZPaxBv7wHEszw06T-44">
          <mxCell style="text;whiteSpace=wrap;html=1;" vertex="1" parent="1">
            <mxGeometry x="1290" y="306" width="270" height="130" as="geometry" />
          </mxCell>
        </UserObject>
        <UserObject label="&lt;b style=&quot;font-weight:normal;&quot; id=&quot;docs-internal-guid-496f3365-7fff-aeda-53b7-f4fe003b459d&quot;&gt;&lt;img width=&quot;238px;&quot; height=&quot;142px;&quot; src=&quot;https://lh7-us.googleusercontent.com/slidesz/AGV_vUfE-JuTLQnqPyJESkZBqqqGxtoPml55HXWEowA6Bw9amYH6bXZIRb9iqYQceFWHChq43nR2lEX1d--04lwGe29cMfkEh_jwFoEHuQZCfezdLd1GLwfXWEEFQmZfC4Fg6B2OtN397FUwaGYLttQnDUH1ZfM_KK86=s2048?key=coPCTO-R2lsjF8-3ZztxCA&quot;&gt;&lt;/b&gt;" link="&lt;b style=&quot;font-weight:normal;&quot; id=&quot;docs-internal-guid-496f3365-7fff-aeda-53b7-f4fe003b459d&quot;&gt;&lt;img width=&quot;238px;&quot; height=&quot;142px;&quot; src=&quot;https://lh7-us.googleusercontent.com/slidesz/AGV_vUfE-JuTLQnqPyJESkZBqqqGxtoPml55HXWEowA6Bw9amYH6bXZIRb9iqYQceFWHChq43nR2lEX1d--04lwGe29cMfkEh_jwFoEHuQZCfezdLd1GLwfXWEEFQmZfC4Fg6B2OtN397FUwaGYLttQnDUH1ZfM_KK86=s2048?key=coPCTO-R2lsjF8-3ZztxCA&quot;&gt;&lt;/b&gt;" id="aCLTZPaxBv7wHEszw06T-45">
          <mxCell style="text;whiteSpace=wrap;html=1;" vertex="1" parent="1">
            <mxGeometry x="1290" y="436" width="270" height="170" as="geometry" />
          </mxCell>
        </UserObject>
        <UserObject label="&lt;b style=&quot;font-weight:normal;&quot; id=&quot;docs-internal-guid-207802f0-7fff-83a2-6ebf-e8c68b12bc6f&quot;&gt;&lt;img width=&quot;236px;&quot; height=&quot;102px;&quot; src=&quot;https://lh7-us.googleusercontent.com/slidesz/AGV_vUcV227eC2NPxCugC51EGkI40NmZmDd3QjHURq4QdMfJ6AWkq7GxHOfByO15RsO9gtNoHqf_e_mnfXWmXduyFhAkLVvQOe8Ek7LFg2I-pPyvOcv3riWvGC8iop3xppmrfkVlrqtBY9ml5Njujycr4zN5yKq4Z0fEtA=s2048?key=coPCTO-R2lsjF8-3ZztxCA&quot;&gt;&lt;/b&gt;" link="&lt;b style=&quot;font-weight:normal;&quot; id=&quot;docs-internal-guid-207802f0-7fff-83a2-6ebf-e8c68b12bc6f&quot;&gt;&lt;img width=&quot;236px;&quot; height=&quot;102px;&quot; src=&quot;https://lh7-us.googleusercontent.com/slidesz/AGV_vUcV227eC2NPxCugC51EGkI40NmZmDd3QjHURq4QdMfJ6AWkq7GxHOfByO15RsO9gtNoHqf_e_mnfXWmXduyFhAkLVvQOe8Ek7LFg2I-pPyvOcv3riWvGC8iop3xppmrfkVlrqtBY9ml5Njujycr4zN5yKq4Z0fEtA=s2048?key=coPCTO-R2lsjF8-3ZztxCA&quot;&gt;&lt;/b&gt;" id="aCLTZPaxBv7wHEszw06T-46">
          <mxCell style="text;whiteSpace=wrap;html=1;" vertex="1" parent="1">
            <mxGeometry x="1290" y="17.5" width="270" height="130" as="geometry" />
          </mxCell>
        </UserObject>
        <mxCell id="aCLTZPaxBv7wHEszw06T-47" style="edgeStyle=orthogonalEdgeStyle;rounded=0;orthogonalLoop=1;jettySize=auto;html=1;entryX=-0.005;entryY=0.169;entryDx=0;entryDy=0;entryPerimeter=0;" edge="1" parent="1" source="aCLTZPaxBv7wHEszw06T-29" target="aCLTZPaxBv7wHEszw06T-41">
          <mxGeometry relative="1" as="geometry" />
        </mxCell>
        <mxCell id="aCLTZPaxBv7wHEszw06T-48" style="edgeStyle=orthogonalEdgeStyle;rounded=0;orthogonalLoop=1;jettySize=auto;html=1;entryX=-0.01;entryY=0.891;entryDx=0;entryDy=0;entryPerimeter=0;" edge="1" parent="1" source="aCLTZPaxBv7wHEszw06T-29" target="aCLTZPaxBv7wHEszw06T-41">
          <mxGeometry relative="1" as="geometry" />
        </mxCell>
        <mxCell id="aCLTZPaxBv7wHEszw06T-49" style="edgeStyle=orthogonalEdgeStyle;rounded=0;orthogonalLoop=1;jettySize=auto;html=1;entryX=0.022;entryY=0.154;entryDx=0;entryDy=0;entryPerimeter=0;" edge="1" parent="1" source="aCLTZPaxBv7wHEszw06T-18" target="aCLTZPaxBv7wHEszw06T-29">
          <mxGeometry relative="1" as="geometry" />
        </mxCell>
        <mxCell id="aCLTZPaxBv7wHEszw06T-50" style="edgeStyle=orthogonalEdgeStyle;rounded=0;orthogonalLoop=1;jettySize=auto;html=1;exitX=1;exitY=0.5;exitDx=0;exitDy=0;entryX=-0.056;entryY=0.916;entryDx=0;entryDy=0;entryPerimeter=0;" edge="1" parent="1" source="aCLTZPaxBv7wHEszw06T-18" target="aCLTZPaxBv7wHEszw06T-29">
          <mxGeometry relative="1" as="geometry" />
        </mxCell>
      </root>
    </mxGraphModel>
  </diagram>
</mxfile>
